<?xml version="1.0" standalone="no"?>
<!DOCTYPE svg PUBLIC "-//W3C//DTD SVG 20010904//EN"
 "http://www.w3.org/TR/2001/REC-SVG-20010904/DTD/svg10.dtd">
<svg version="1.0" xmlns="http://www.w3.org/2000/svg"
 width="114.000000pt" height="114.000000pt" viewBox="0 0 114.000000 114.000000"
 preserveAspectRatio="xMidYMid meet">
<metadata>
Created by potrace 1.14, written by Peter Selinger 2001-2017
</metadata>
<g transform="translate(0.000000,114.000000) scale(0.100000,-0.100000)"
fill="#000000" stroke="none">
<path d="M0 570 l0 -570 570 0 570 0 0 570 0 570 -570 0 -570 0 0 -570z m777
178 c47 -22 79 -61 99 -117 11 -34 15 -36 63 -41 37 -4 58 -13 77 -31 33 -34
42 -94 20 -137 -29 -56 -54 -62 -261 -62 l-185 0 0 200 0 200 28 6 c15 3 32 7
37 9 19 7 80 -6 122 -27z m-197 -199 c0 -148 -3 -190 -12 -187 -10 4 -14 51
-16 183 -3 182 0 211 18 200 6 -4 10 -79 10 -196z m-40 -9 c0 -153 -2 -180
-15 -180 -13 0 -15 27 -15 180 0 153 2 180 15 180 13 0 15 -27 15 -180z m-121
-25 c1 -93 -8 -157 -20 -149 -11 6 -12 318 -1 328 9 10 20 -78 21 -179z m-40
-10 c1 -83 -8 -147 -20 -139 -11 6 -12 308 -1 318 9 9 19 -83 21 -179z m75
148 c8 -48 8 -241 0 -270 -15 -55 -24 1 -24 148 0 151 10 203 24 122z m41
-133 c0 -114 -3 -154 -12 -157 -10 -4 -13 32 -13 157 0 125 3 161 13 158 9 -4
12 -44 12 -158z m-156 -20 c1 -86 -9 -152 -20 -125 -10 26 -11 222 -2 266 7
33 8 32 14 -21 4 -30 7 -84 8 -120z m-40 -10 c0 -30 -2 -73 -6 -95 l-7 -40 -7
30 c-9 42 -10 143 -2 201 l7 49 7 -45 c4 -25 8 -70 8 -100z m-80 -11 c1 -31
-2 -72 -6 -90 -7 -32 -8 -31 -13 21 -8 72 0 185 11 150 4 -14 7 -50 8 -81z
m-39 -9 c0 -41 -5 -82 -10 -90 -7 -10 -10 19 -10 90 0 71 3 100 10 90 5 -8 10
-49 10 -90z m78 0 c0 -30 -3 -68 -7 -85 -6 -26 -8 -22 -14 29 -9 69 2 177 14
136 4 -14 7 -50 7 -80z m-118 -6 c0 -47 -4 -73 -10 -69 -18 11 -12 145 7 145
2 0 3 -34 3 -76z m-38 7 c0 -23 -2 -45 -6 -48 -3 -4 -6 18 -6 47 0 29 3 51 6
48 3 -3 5 -25 6 -47z"/>
</g>
</svg>
